<svg version="1.1" id="Layer_1" xmlns="http://www.w3.org/2000/svg" xmlns:xlink="http://www.w3.org/1999/xlink" x="0px" y="0px"
	 width="100%" viewBox="0 0 200 200" enable-background="new 0 0 200 200" xml:space="preserve">
<path fill="#DA281C" opacity="1.000000" stroke="none" 
	d="
M107.000000,201.000000 
	C71.355324,201.000000 36.210648,201.000000 1.032985,201.000000 
	C1.032985,134.397018 1.032985,67.794029 1.032985,1.095516 
	C67.561180,1.095516 134.122543,1.095516 200.841949,1.095516 
	C200.841949,67.666367 200.841949,134.333145 200.841949,201.000000 
	C169.794312,201.000000 138.647156,201.000000 107.000000,201.000000 
M56.486629,85.912437 
	C56.153263,85.756027 55.819901,85.599617 55.639542,85.521538 
	C55.639542,85.521538 55.470722,85.489174 55.610111,84.701004 
	C54.062309,81.932655 46.418236,79.591888 43.809944,81.136620 
	C43.436287,81.357903 43.263069,81.917633 42.639790,82.610786 
	C42.307865,82.741585 42.028908,82.668953 40.943581,82.211647 
	C39.130035,82.329521 37.290405,82.293198 35.507935,82.594749 
	C30.556753,83.432358 27.229416,88.427505 28.233332,93.271286 
	C28.233332,93.271286 28.267397,93.291122 27.516838,93.472420 
	C27.006264,96.590164 26.139336,99.700874 26.077705,102.827469 
	C26.004999,106.515846 25.682966,110.707718 27.260048,113.754105 
	C28.452108,116.056747 32.296501,117.514236 35.238884,118.285027 
	C44.501770,120.711533 53.998177,123.232994 61.341286,113.830750 
	C61.463150,113.674721 61.959587,113.811234 61.905396,113.811234 
	C63.416565,115.641563 64.782524,117.296013 66.591637,119.011528 
	C66.591637,119.011528 66.999443,119.195374 67.592003,119.555412 
	C72.604958,121.899315 75.112312,119.761742 76.561623,115.148354 
	C77.108131,115.389511 77.654640,115.630661 78.125046,115.876747 
	C78.125046,115.876747 78.129562,115.800613 78.329063,116.296127 
	C78.600372,116.518517 78.871681,116.740913 79.554985,117.100655 
	C79.833488,117.240608 80.006943,117.462631 80.517548,118.392395 
	C83.679527,118.896576 86.841499,119.400764 90.646873,120.355331 
	C93.768349,119.978462 96.889816,119.601593 100.507050,119.049500 
	C100.679070,119.015915 100.851097,118.982330 101.871849,118.973000 
	C103.293800,118.949722 104.715752,118.926437 107.016922,118.991249 
	C108.921883,118.991249 110.826851,118.991249 112.154732,118.991249 
	C115.550682,110.890572 107.196655,98.819565 121.842285,96.312157 
	C121.842285,94.225967 121.842285,92.161278 121.842285,89.535927 
	C119.664108,90.246979 117.951805,90.752617 116.281174,91.370872 
	C115.242638,91.755203 114.210342,92.800919 113.274597,92.692490 
	C110.873466,92.414246 108.527779,91.657501 105.525101,91.296654 
	C104.772476,92.756531 104.019844,94.216408 103.265564,95.679489 
	C102.384560,95.148865 101.562447,94.653709 100.849434,94.122620 
	C100.849434,94.122620 100.778923,94.213295 100.827385,93.480186 
	C99.825798,92.704597 98.824211,91.929001 97.896332,91.111870 
	C97.896332,91.111870 97.887238,91.195976 97.791168,90.896347 
	C97.532883,90.644119 97.255554,90.624168 96.393410,90.765419 
	C96.241364,90.651360 96.089310,90.537300 95.688675,90.139816 
	C95.461838,89.992851 95.218376,89.956322 94.983086,89.994705 
	C94.983086,89.994705 94.977600,90.034782 94.642479,89.365875 
	C90.935478,87.382545 87.339966,86.986435 83.855331,90.326263 
	C83.855331,90.326263 83.602951,90.319969 82.810303,90.209778 
	C81.127197,91.785759 79.444084,93.361740 77.016441,94.932243 
	C73.689255,94.762161 74.345261,92.568840 74.332253,90.296890 
	C74.318314,87.862236 73.534187,85.431984 72.807045,82.770859 
	C72.807045,82.770859 72.774246,82.411331 72.628380,81.684052 
	C70.719612,81.344353 67.833382,80.067368 67.088737,80.843933 
	C65.007957,83.013893 63.813435,86.033684 62.197941,88.841751 
	C61.500862,88.706856 60.058952,88.427826 58.242992,88.044891 
	C58.004333,87.890923 57.883606,87.671928 57.572651,86.881836 
	C57.258453,86.645035 56.944260,86.408241 56.823322,86.172806 
	C56.823322,86.172806 56.814674,86.365883 56.486629,85.912437 
M148.636734,94.938141 
	C142.759018,89.318680 135.438248,88.146133 129.712296,91.907051 
	C123.891159,95.730484 121.367256,102.959343 123.736801,109.357262 
	C125.739502,114.764679 129.568420,118.207451 135.337189,119.022842 
	C141.521912,119.897026 146.542145,117.561737 149.809723,112.307556 
	C153.302170,106.691811 152.892334,100.962051 148.636734,94.938141 
M157.372955,86.784897 
	C161.629257,82.493370 165.885544,78.201843 170.262589,73.788574 
	C168.466049,72.104942 167.172012,70.892235 166.079193,69.868103 
	C160.310715,75.614807 154.828537,81.076286 149.169510,86.713943 
	C150.459732,87.942513 151.843842,89.260498 153.341568,90.686661 
	C154.762848,89.326187 155.831055,88.303688 157.372955,86.784897 
M135.082458,82.074341 
	C136.904022,82.917404 138.725586,83.760475 141.097473,84.858253 
	C141.097473,77.664513 141.097473,71.968964 141.097473,66.163803 
	C139.029221,66.163803 137.288528,66.163803 135.060471,66.163803 
	C135.060471,71.327522 135.060471,76.238632 135.082458,82.074341 
M161.689423,97.833679 
	C159.948074,97.922867 158.206726,98.012047 156.243912,98.112579 
	C156.357574,100.350479 156.438965,101.952843 156.533691,103.817886 
	C162.729980,103.817886 168.611038,103.817886 174.715591,103.817886 
	C174.715591,101.806641 174.715591,100.079674 174.715591,98.462875 
	C174.166595,98.204346 173.878815,97.953705 173.586914,97.948837 
	C169.937469,97.887894 166.287445,97.862587 161.689423,97.833679 
M77.500153,118.474281 
	C77.500153,118.474281 77.513634,118.511993 77.500153,118.474281 
z"/>
<path fill="#D13126" opacity="1.000000" stroke="none" 
	d="
M66.148491,118.950462 
	C64.782524,117.296013 63.416565,115.641563 61.905396,113.811234 
	C61.959587,113.811234 61.463150,113.674721 61.341286,113.830750 
	C53.998177,123.232994 44.501770,120.711533 35.238884,118.285027 
	C32.296501,117.514236 28.452108,116.056747 27.260048,113.754105 
	C25.682966,110.707718 26.004999,106.515846 26.077705,102.827469 
	C26.139336,99.700874 27.006264,96.590164 27.840481,93.778259 
	C25.657896,102.189621 27.224592,109.353325 33.795052,114.826332 
	C39.527710,119.601463 46.176315,120.389091 52.930752,117.067337 
	C57.261768,114.937401 60.946323,112.003059 60.608463,105.736450 
	C57.700924,106.317818 54.864628,107.118492 52.838474,108.861115 
	C48.114838,112.923790 41.440849,112.976860 37.116123,108.476196 
	C32.901516,104.090134 33.018589,97.082611 37.378983,92.742584 
	C41.749519,88.392464 48.955826,88.175667 52.906906,93.007423 
	C55.651047,96.363213 58.403984,96.342621 62.497078,95.361053 
	C61.078037,92.723312 59.847542,90.436050 58.617043,88.148788 
	C60.058952,88.427826 61.500862,88.706856 62.197941,88.841751 
	C63.813435,86.033684 65.007957,83.013893 67.088737,80.843933 
	C67.833382,80.067368 70.719612,81.344353 72.293701,82.087555 
	C70.061684,82.491058 68.164352,82.491058 66.148491,82.491058 
	C66.148491,95.214981 66.148491,107.082718 66.148491,118.950462 
z"/>
<path fill="#FEF2EF" opacity="1.000000" stroke="none" 
	d="
M58.430019,88.096848 
	C59.847542,90.436050 61.078037,92.723312 62.497078,95.361053 
	C58.403984,96.342621 55.651047,96.363213 52.906906,93.007423 
	C48.955826,88.175667 41.749519,88.392464 37.378983,92.742584 
	C33.018589,97.082611 32.901516,104.090134 37.116123,108.476196 
	C41.440849,112.976860 48.114838,112.923790 52.838474,108.861115 
	C54.864628,107.118492 57.700924,106.317818 60.608463,105.736450 
	C60.946323,112.003059 57.261768,114.937401 52.930752,117.067337 
	C46.176315,120.389091 39.527710,119.601463 33.795052,114.826332 
	C27.224592,109.353325 25.657896,102.189621 28.215761,93.687607 
	C28.267397,93.291122 28.233332,93.271286 28.514944,93.059525 
	C31.575062,87.425880 36.101192,84.178131 41.802925,82.392883 
	C42.028908,82.668953 42.307865,82.741585 43.211395,82.549225 
	C47.678913,83.488159 51.574818,84.488663 55.470722,85.489166 
	C55.470722,85.489174 55.639542,85.521538 55.717270,85.721436 
	C56.134892,86.069511 56.474781,86.217697 56.814674,86.365883 
	C56.814674,86.365883 56.823322,86.172806 56.844543,86.458916 
	C57.204113,86.959320 57.542461,87.173615 57.880814,87.387909 
	C57.883606,87.671928 58.004333,87.890923 58.430019,88.096848 
z"/>
<path fill="#FEF3F0" opacity="1.000000" stroke="none" 
	d="
M148.874573,95.223465 
	C152.892334,100.962051 153.302170,106.691811 149.809723,112.307556 
	C146.542145,117.561737 141.521912,119.897026 135.337189,119.022842 
	C129.568420,118.207451 125.739502,114.764679 123.736801,109.357262 
	C121.367256,102.959343 123.891159,95.730484 129.712296,91.907051 
	C135.438248,88.146133 142.759018,89.318680 148.874573,95.223465 
M135.082901,97.087891 
	C131.049377,98.852211 128.716751,102.063072 130.255249,106.180809 
	C131.139648,108.547867 133.861191,111.016670 136.296524,111.839973 
	C140.430634,113.237556 144.596786,109.648727 145.056992,105.270493 
	C145.594940,100.152924 142.073410,96.960640 135.082901,97.087891 
z"/>
<path fill="#FEF3F0" opacity="1.000000" stroke="none" 
	d="
M80.075333,117.766731 
	C80.006943,117.462631 79.833488,117.240608 79.274918,116.764862 
	C78.706429,116.219589 78.417992,116.010101 78.129562,115.800613 
	C78.129562,115.800613 78.125046,115.876747 78.110809,115.492081 
	C78.092262,112.081024 78.087952,109.054626 78.050217,106.025780 
	C78.016792,106.023323 78.055214,106.078247 78.301651,105.943680 
	C78.872437,105.355042 79.196793,104.900963 79.396561,104.285477 
	C79.271965,104.124054 79.548149,104.424194 79.871605,104.266846 
	C83.827766,103.087746 87.509392,102.205940 91.064865,100.963234 
	C92.205551,100.564545 93.013016,99.212479 93.972931,98.296593 
	C92.928268,97.434921 91.974068,96.041756 90.816277,95.844681 
	C89.333488,95.592270 86.835121,95.772545 86.261940,96.692863 
	C84.082634,100.192017 81.015785,99.375664 77.948654,98.888657 
	C77.891022,98.404861 77.851120,98.213600 77.933228,97.711288 
	C78.077057,96.958839 78.098877,96.517464 78.060104,96.055527 
	C77.999519,96.034973 78.115425,96.093193 78.351273,95.859459 
	C80.259071,93.857140 81.931007,92.088554 83.602951,90.319962 
	C83.602951,90.319969 83.855331,90.326263 84.384033,90.228195 
	C88.267685,90.098351 91.622643,90.066566 94.977600,90.034782 
	C94.977600,90.034782 94.983086,89.994705 95.092224,90.162743 
	C95.201363,90.330780 95.556541,90.478844 95.556541,90.478844 
	C95.556541,90.478844 95.937263,90.423248 95.937263,90.423248 
	C96.089310,90.537300 96.241364,90.651360 96.882439,90.958237 
	C97.543388,91.166016 97.715309,91.180992 97.887238,91.195976 
	C97.887238,91.195976 97.896332,91.111870 98.010986,91.401489 
	C99.010063,92.531837 99.894493,93.372566 100.778923,94.213295 
	C100.778923,94.213295 100.849434,94.122620 100.835831,94.598938 
	C100.889198,103.033081 100.956154,110.990913 101.023117,118.948746 
	C100.851097,118.982330 100.679070,119.015915 99.855789,119.053116 
	C97.564301,118.977058 95.924057,118.897392 94.245682,118.445755 
	C93.283813,117.982964 92.360817,117.823273 91.436234,117.813400 
	C87.649536,117.772980 83.862343,117.778267 80.075333,117.766731 
M88.191536,106.554871 
	C85.423637,107.191521 83.209290,108.675003 84.580986,111.670944 
	C85.128944,112.867775 87.897964,113.955742 89.361900,113.656212 
	C93.893410,112.729004 94.418633,109.310814 93.626114,105.319046 
	C91.860634,105.694267 90.399872,106.004723 88.191536,106.554871 
z"/>
<path fill="#FEF3F1" opacity="1.000000" stroke="none" 
	d="
M106.159927,91.092041 
	C108.527779,91.657501 110.873466,92.414246 113.274597,92.692490 
	C114.210342,92.800919 115.242638,91.755203 116.281174,91.370872 
	C117.951805,90.752617 119.664108,90.246979 121.842285,89.535927 
	C121.842285,92.161278 121.842285,94.225967 121.842285,96.312157 
	C107.196655,98.819565 115.550682,110.890572 112.154732,118.991249 
	C110.826851,118.991249 108.921883,118.991249 106.556137,118.486359 
	C106.116882,109.018318 106.138405,100.055183 106.159927,91.092041 
z"/>
<path fill="#FEF4F1" opacity="1.000000" stroke="none" 
	d="
M66.370064,118.980995 
	C66.148491,107.082718 66.148491,95.214981 66.148491,82.491058 
	C68.164352,82.491058 70.061684,82.491058 72.366638,82.451195 
	C72.774246,82.411331 72.807045,82.770859 72.921799,83.353790 
	C73.036545,95.544418 73.036545,107.152122 73.036545,118.811394 
	C70.624954,118.964775 68.812195,119.080070 66.999443,119.195374 
	C66.999443,119.195374 66.591637,119.011528 66.370064,118.980995 
z"/>
<path fill="#FDECE7" opacity="1.000000" stroke="none" 
	d="
M157.136108,87.033043 
	C155.831055,88.303688 154.762848,89.326187 153.341568,90.686661 
	C151.843842,89.260498 150.459732,87.942513 149.169510,86.713943 
	C154.828537,81.076286 160.310715,75.614807 166.079193,69.868103 
	C167.172012,70.892235 168.466049,72.104942 170.262589,73.788574 
	C165.885544,78.201843 161.629257,82.493370 157.136108,87.033043 
z"/>
<path fill="#FEF3F0" opacity="1.000000" stroke="none" 
	d="
M135.071472,81.612045 
	C135.060471,76.238632 135.060471,71.327522 135.060471,66.163803 
	C137.288528,66.163803 139.029221,66.163803 141.097473,66.163803 
	C141.097473,71.968964 141.097473,77.664513 141.097473,84.858253 
	C138.725586,83.760475 136.904022,82.917404 135.071472,81.612045 
z"/>
<path fill="#C74137" opacity="1.000000" stroke="none" 
	d="
M105.842514,91.194351 
	C106.138405,100.055183 106.116882,109.018318 106.116531,118.442307 
	C104.715752,118.926437 103.293800,118.949722 101.447479,118.960876 
	C100.956154,110.990913 100.889198,103.033081 100.781281,94.616898 
	C101.562447,94.653709 102.384560,95.148865 103.265564,95.679489 
	C104.019844,94.216408 104.772476,92.756531 105.842514,91.194351 
M103.502815,114.465080 
	C103.502815,114.465080 103.522827,114.515709 103.502815,114.465080 
z"/>
<path fill="#D13126" opacity="1.000000" stroke="none" 
	d="
M67.295723,119.375389 
	C68.812195,119.080070 70.624954,118.964775 73.036545,118.811394 
	C73.036545,107.152122 73.036545,95.544418 73.061371,83.468262 
	C73.534187,85.431984 74.318314,87.862236 74.332253,90.296890 
	C74.345261,92.568840 73.689255,94.762161 77.470390,95.226364 
	C77.988037,95.711388 78.051727,95.902290 78.115425,96.093193 
	C78.115425,96.093193 77.999519,96.034973 77.881516,96.195541 
	C77.779411,96.911522 77.795319,97.466934 77.811218,98.022346 
	C77.851120,98.213600 77.891022,98.404861 77.952454,99.182571 
	C78.290520,100.475380 78.607063,101.181740 78.977661,101.956940 
	C79.031715,102.025780 79.142677,102.161163 79.191483,102.541870 
	C79.342918,103.423119 79.445534,103.923653 79.548149,104.424194 
	C79.548149,104.424194 79.271965,104.124054 79.109543,104.369446 
	C78.649818,105.102646 78.352516,105.590446 78.055222,106.078247 
	C78.055214,106.078247 78.016792,106.023323 77.742844,106.245132 
	C76.997314,109.252693 76.525742,112.038437 76.054169,114.824181 
	C75.112312,119.761742 72.604958,121.899315 67.295723,119.375389 
z"/>
<path fill="#FEF1ED" opacity="1.000000" stroke="none" 
	d="
M162.163483,97.830910 
	C166.287445,97.862587 169.937469,97.887894 173.586914,97.948837 
	C173.878815,97.953705 174.166595,98.204346 174.715591,98.462875 
	C174.715591,100.079674 174.715591,101.806641 174.715591,103.817886 
	C168.611038,103.817886 162.729980,103.817886 156.533691,103.817886 
	C156.438965,101.952843 156.357574,100.350479 156.243912,98.112579 
	C158.206726,98.012047 159.948074,97.922867 162.163483,97.830910 
z"/>
<path fill="#D13126" opacity="1.000000" stroke="none" 
	d="
M41.373253,82.302261 
	C36.101192,84.178131 31.575062,87.425880 28.534489,93.058479 
	C27.229416,88.427505 30.556753,83.432358 35.507935,82.594749 
	C37.290405,82.293198 39.130035,82.329521 41.373253,82.302261 
z"/>
<path fill="#D13126" opacity="1.000000" stroke="none" 
	d="
M55.540417,85.095085 
	C51.574818,84.488663 47.678913,83.488159 43.390045,82.404190 
	C43.263069,81.917633 43.436287,81.357903 43.809944,81.136620 
	C46.418236,79.591888 54.062309,81.932655 55.540417,85.095085 
z"/>
<path fill="#CB463E" opacity="1.000000" stroke="none" 
	d="
M94.810043,89.700333 
	C91.622643,90.066566 88.267685,90.098351 84.452347,90.122055 
	C87.339966,86.986435 90.935478,87.382545 94.810043,89.700333 
z"/>
<path fill="#CB463E" opacity="1.000000" stroke="none" 
	d="
M80.296440,118.079559 
	C83.862343,117.778267 87.649536,117.772980 91.436234,117.813400 
	C92.360817,117.823273 93.283813,117.982964 93.877464,118.486923 
	C92.366089,119.235039 91.184784,119.569992 90.003479,119.904953 
	C86.841499,119.400764 83.679527,118.896576 80.296440,118.079559 
z"/>
<path fill="#D13126" opacity="1.000000" stroke="none" 
	d="
M90.325180,120.130142 
	C91.184784,119.569992 92.366089,119.235039 93.915604,118.858902 
	C95.924057,118.897392 97.564301,118.977058 99.607910,119.140724 
	C96.889816,119.601593 93.768349,119.978462 90.325180,120.130142 
z"/>
<path fill="#CB463E" opacity="1.000000" stroke="none" 
	d="
M76.307892,114.986267 
	C76.525742,112.038437 76.997314,109.252693 77.776260,106.247589 
	C78.087952,109.054626 78.092262,112.081024 78.148865,115.489616 
	C77.654640,115.630661 77.108131,115.389511 76.307892,114.986267 
z"/>
<path fill="#CB463E" opacity="1.000000" stroke="none" 
	d="
M78.351273,95.859459 
	C78.051727,95.902290 77.988037,95.711388 77.842659,95.229111 
	C79.444084,93.361740 81.127197,91.785759 83.206619,90.264870 
	C81.931007,92.088554 80.259071,93.857140 78.351273,95.859459 
z"/>
<path fill="#C74137" opacity="1.000000" stroke="none" 
	d="
M100.803154,93.846741 
	C99.894493,93.372566 99.010063,92.531837 97.974136,91.422256 
	C98.824211,91.929001 99.825798,92.704597 100.803154,93.846741 
z"/>
<path fill="#C74137" opacity="1.000000" stroke="none" 
	d="
M97.839203,91.046158 
	C97.715309,91.180992 97.543388,91.166016 97.165329,90.993774 
	C97.255554,90.624168 97.532883,90.644119 97.839203,91.046158 
z"/>
<path fill="#CB463E" opacity="1.000000" stroke="none" 
	d="
M95.812973,90.281532 
	C95.937263,90.423248 95.556541,90.478844 95.556541,90.478844 
	C95.556541,90.478844 95.201363,90.330780 95.079834,90.180511 
	C95.218376,89.956322 95.461838,89.992851 95.812973,90.281532 
z"/>
<path fill="#CB463E" opacity="1.000000" stroke="none" 
	d="
M78.229309,116.048370 
	C78.417992,116.010101 78.706429,116.219589 79.068924,116.696198 
	C78.871681,116.740913 78.600372,116.518517 78.229309,116.048370 
z"/>
<path fill="#D13126" opacity="1.000000" stroke="none" 
	d="
M57.726730,87.134872 
	C57.542461,87.173615 57.204113,86.959320 56.747917,86.458237 
	C56.944260,86.408241 57.258453,86.645035 57.726730,87.134872 
z"/>
<path fill="#D13126" opacity="1.000000" stroke="none" 
	d="
M77.506897,118.493134 
	C77.513634,118.511993 77.500153,118.474281 77.506897,118.493134 
z"/>
<path fill="#D13126" opacity="1.000000" stroke="none" 
	d="
M56.650650,86.139160 
	C56.474781,86.217697 56.134892,86.069511 55.640770,85.682266 
	C55.819901,85.599617 56.153263,85.756027 56.650650,86.139160 
z"/>
<path fill="#D13026" opacity="1.000000" stroke="none" 
	d="
M135.484222,97.022202 
	C142.073410,96.960640 145.594940,100.152924 145.056992,105.270493 
	C144.596786,109.648727 140.430634,113.237556 136.296524,111.839973 
	C133.861191,111.016670 131.139648,108.547867 130.255249,106.180809 
	C128.716751,102.063072 131.049377,98.852211 135.484222,97.022202 
z"/>
<path fill="#CB463E" opacity="1.000000" stroke="none" 
	d="
M78.923607,101.888107 
	C78.607063,101.181740 78.290520,100.475380 77.970177,99.475098 
	C81.015785,99.375664 84.082634,100.192017 86.261940,96.692863 
	C86.835121,95.772545 89.333488,95.592270 90.816277,95.844681 
	C91.974068,96.041756 92.928268,97.434921 93.972931,98.296593 
	C93.013016,99.212479 92.205551,100.564545 91.064865,100.963234 
	C87.509392,102.205940 83.827766,103.087746 79.871605,104.266846 
	C79.445534,103.923653 79.342918,103.423119 79.412979,102.510651 
	C79.923683,101.880211 80.261688,101.661713 80.599701,101.443207 
	C80.041000,101.591507 79.482307,101.739807 78.923607,101.888107 
z"/>
<path fill="#C7392E" opacity="1.000000" stroke="none" 
	d="
M88.565323,106.435028 
	C90.399872,106.004723 91.860634,105.694267 93.626114,105.319046 
	C94.418633,109.310814 93.893410,112.729004 89.361900,113.656212 
	C87.897964,113.955742 85.128944,112.867775 84.580986,111.670944 
	C83.209290,108.675003 85.423637,107.191521 88.565323,106.435028 
z"/>
<path fill="#CB463E" opacity="1.000000" stroke="none" 
	d="
M77.933228,97.711288 
	C77.795319,97.466934 77.779411,96.911522 77.942101,96.216095 
	C78.098877,96.517464 78.077057,96.958839 77.933228,97.711288 
z"/>
<path fill="#CB463E" opacity="1.000000" stroke="none" 
	d="
M78.301651,105.943680 
	C78.352516,105.590446 78.649818,105.102646 79.234131,104.530869 
	C79.196793,104.900963 78.872437,105.355042 78.301651,105.943680 
z"/>
<path fill="#DA281C" opacity="1.000000" stroke="none" 
	d="
M103.512817,114.490395 
	C103.522827,114.515709 103.502815,114.465080 103.512817,114.490395 
z"/>
<path fill="#D13126" opacity="1.000000" stroke="none" 
	d="
M78.977661,101.956940 
	C79.482307,101.739807 80.041000,101.591507 80.599701,101.443207 
	C80.261688,101.661713 79.923683,101.880211 79.364174,102.129944 
	C79.142677,102.161163 79.031715,102.025780 78.977661,101.956940 
z"/>
</svg>