<svg version="1.1" id="Layer_1" xmlns="http://www.w3.org/2000/svg" xmlns:xlink="http://www.w3.org/1999/xlink" x="0px" y="0px"
	 width="100%" viewBox="0 0 400 400" enable-background="new 0 0 400 400" xml:space="preserve">
<path fill="#002EFD" opacity="1.000000" stroke="none" 
	d="
M180.000000,401.000000 
	C120.018593,401.000000 60.537182,401.000000 1.027886,401.000000 
	C1.027886,267.726929 1.027886,134.453842 1.027886,1.090375 
	C134.231369,1.090375 267.462830,1.090375 400.847137,1.090375 
	C400.847137,134.333206 400.847137,267.666565 400.847137,401.000000 
	C327.453918,401.000000 253.976959,401.000000 180.000000,401.000000 
M150.935547,237.064850 
	C150.935547,237.064850 150.932083,237.140442 150.855545,236.443710 
	C149.194733,235.006393 147.533920,233.569077 145.303589,231.718399 
	C143.704834,227.746994 141.613220,223.894180 140.622238,219.776505 
	C139.115311,213.514954 140.153915,212.560364 146.752274,212.553711 
	C169.073547,212.531204 191.394867,212.543198 213.716171,212.544754 
	C218.046967,212.545059 222.378235,212.601517 226.708450,212.554276 
	C232.860245,212.487152 234.435837,210.924454 234.504364,204.917068 
	C234.540466,201.752472 234.530258,198.587219 234.526077,195.422287 
	C234.478989,159.812805 213.165482,130.669434 172.679260,128.494583 
	C139.232285,126.697876 113.433464,144.825943 105.371689,177.153305 
	C101.776291,191.570694 101.881134,206.238205 104.150406,220.814270 
	C106.484863,235.808990 112.196632,249.285492 124.111732,259.398254 
	C136.561676,269.965027 151.691086,273.483307 167.349960,274.818848 
	C173.125122,275.311432 179.123688,274.054291 184.934906,273.083557 
	C199.676071,270.621277 212.691818,264.077423 224.669876,255.369873 
	C228.875061,252.312897 228.909332,250.529678 225.196548,247.048401 
	C220.581985,242.721573 215.732117,238.637085 211.253021,234.177612 
	C208.581406,231.517685 206.393631,231.616943 203.418716,233.628159 
	C199.455139,236.307785 195.182190,238.529846 190.473312,240.548615 
	C180.619110,241.051163 170.764923,241.553711 160.977890,242.029602 
	C160.977890,242.029602 161.001190,242.098007 160.516541,241.546188 
	C159.812927,241.447525 159.109314,241.348846 158.185455,241.287445 
	C158.185455,241.287445 158.059921,241.102676 157.682098,240.507843 
	C155.408920,239.366806 153.135742,238.225784 150.935547,237.064850 
M269.108551,212.230988 
	C268.041809,226.443802 262.799927,238.919144 253.511948,249.710892 
	C249.712082,254.125946 249.853088,255.840424 254.525345,259.455566 
	C257.810699,261.997620 261.162689,264.457031 264.543823,266.870880 
	C269.618896,270.494049 272.907043,270.277924 277.263458,265.822968 
	C289.805054,252.997772 296.765045,237.443222 298.820496,219.775635 
	C300.432953,205.915802 299.294983,192.150421 294.719666,178.901993 
	C289.092590,162.608063 279.451965,149.149033 265.158508,139.255585 
	C261.641876,136.821503 258.157318,137.226028 255.239273,140.240677 
	C251.540146,144.062210 248.048447,148.085922 244.502808,152.054169 
	C242.009781,154.844360 242.242645,157.290009 245.314194,159.620667 
	C247.951401,161.621765 250.618515,163.682007 252.846573,166.107300 
	C264.570801,178.869339 269.665192,194.086594 269.108551,212.230988 
z"/>
<path fill="#FBFCFE" opacity="1.000000" stroke="none" 
	d="
M191.042114,240.948456 
	C195.182190,238.529846 199.455139,236.307785 203.418716,233.628159 
	C206.393631,231.616943 208.581406,231.517685 211.253021,234.177612 
	C215.732117,238.637085 220.581985,242.721573 225.196548,247.048401 
	C228.909332,250.529678 228.875061,252.312897 224.669876,255.369873 
	C212.691818,264.077423 199.676071,270.621277 184.934906,273.083557 
	C179.123688,274.054291 173.125122,275.311432 167.349960,274.818848 
	C151.691086,273.483307 136.561676,269.965027 124.111732,259.398254 
	C112.196632,249.285492 106.484863,235.808990 104.150406,220.814270 
	C101.881134,206.238205 101.776291,191.570694 105.371689,177.153305 
	C113.433464,144.825943 139.232285,126.697876 172.679260,128.494583 
	C213.165482,130.669434 234.478989,159.812805 234.526077,195.422287 
	C234.530258,198.587219 234.540466,201.752472 234.504364,204.917068 
	C234.435837,210.924454 232.860245,212.487152 226.708450,212.554276 
	C222.378235,212.601517 218.046967,212.545059 213.716171,212.544754 
	C191.394867,212.543198 169.073547,212.531204 146.752274,212.553711 
	C140.153915,212.560364 139.115311,213.514954 140.622238,219.776505 
	C141.613220,223.894180 143.704834,227.746994 145.665894,232.243652 
	C147.662811,234.226089 149.297455,235.683258 150.932083,237.140442 
	C150.932083,237.140442 150.935547,237.064850 151.057587,237.381287 
	C153.473053,238.832687 155.766479,239.967682 158.059921,241.102676 
	C158.059921,241.102676 158.185455,241.287445 158.540802,241.534515 
	C159.597824,241.887054 160.299500,241.992538 161.001190,242.098007 
	C161.001190,242.098007 160.977890,242.029602 161.216995,242.327972 
	C171.479599,244.914551 181.383621,245.096222 191.042114,240.948456 
M196.787048,183.119461 
	C196.588531,182.589996 196.390015,182.060532 196.406769,181.405045 
	C196.406769,181.405045 196.086227,181.114258 196.140671,180.325073 
	C192.434570,165.292206 181.162949,156.941086 166.302414,158.217987 
	C151.718719,159.471115 141.981430,169.095139 140.337830,184.180603 
	C140.337830,185.402847 140.337830,186.625107 140.337830,187.736969 
	C159.460648,187.736969 178.191559,187.736969 197.114136,187.736969 
	C196.976318,186.269638 196.868713,185.124008 196.787048,183.119461 
z"/>
<path fill="#F73E0B" opacity="1.000000" stroke="none" 
	d="
M269.115448,211.765945 
	C269.665192,194.086594 264.570801,178.869339 252.846573,166.107300 
	C250.618515,163.682007 247.951401,161.621765 245.314194,159.620667 
	C242.242645,157.290009 242.009781,154.844360 244.502808,152.054169 
	C248.048447,148.085922 251.540146,144.062210 255.239273,140.240677 
	C258.157318,137.226028 261.641876,136.821503 265.158508,139.255585 
	C279.451965,149.149033 289.092590,162.608063 294.719666,178.901993 
	C299.294983,192.150421 300.432953,205.915802 298.820496,219.775635 
	C296.765045,237.443222 289.805054,252.997772 277.263458,265.822968 
	C272.907043,270.277924 269.618896,270.494049 264.543823,266.870880 
	C261.162689,264.457031 257.810699,261.997620 254.525345,259.455566 
	C249.853088,255.840424 249.712082,254.125946 253.511948,249.710892 
	C262.799927,238.919144 268.041809,226.443802 269.115448,211.765945 
z"/>
<path fill="#2E49CA" opacity="1.000000" stroke="none" 
	d="
M190.757721,240.748535 
	C181.383621,245.096222 171.479599,244.914551 161.183411,242.341309 
	C170.764923,241.553711 180.619110,241.051163 190.757721,240.748535 
z"/>
<path fill="#2E49CA" opacity="1.000000" stroke="none" 
	d="
M150.893814,236.792084 
	C149.297455,235.683258 147.662811,234.226089 145.950653,232.450317 
	C147.533920,233.569077 149.194733,235.006393 150.893814,236.792084 
z"/>
<path fill="#2E49CA" opacity="1.000000" stroke="none" 
	d="
M157.871002,240.805267 
	C155.766479,239.967682 153.473053,238.832687 151.021088,237.391235 
	C153.135742,238.225784 155.408920,239.366806 157.871002,240.805267 
z"/>
<path fill="#2E49CA" opacity="1.000000" stroke="none" 
	d="
M160.758865,241.822098 
	C160.299500,241.992538 159.597824,241.887054 158.650909,241.515869 
	C159.109314,241.348846 159.812927,241.447525 160.758865,241.822098 
z"/>
<path fill="#0430F8" opacity="1.000000" stroke="none" 
	d="
M140.781815,183.441742 
	C141.981430,169.095139 151.718719,159.471115 166.302414,158.217987 
	C181.162949,156.941086 192.434570,165.292206 196.106415,180.792480 
	C196.072159,181.259903 196.191498,181.531067 196.191498,181.531067 
	C196.390015,182.060532 196.588531,182.589996 196.567749,183.855377 
	C195.073349,185.376099 193.804886,186.831055 192.522110,186.843796 
	C176.784012,187.000214 161.042267,187.041550 145.306564,186.792526 
	C143.781006,186.768387 142.289261,184.609619 140.781815,183.441742 
z"/>
<path fill="#1B37B7" opacity="1.000000" stroke="none" 
	d="
M140.559814,183.811172 
	C142.289261,184.609619 143.781006,186.768387 145.306564,186.792526 
	C161.042267,187.041550 176.784012,187.000214 192.522110,186.843796 
	C193.804886,186.831055 195.073349,185.376099 196.554794,184.284836 
	C196.868713,185.124008 196.976318,186.269638 197.114136,187.736969 
	C178.191559,187.736969 159.460648,187.736969 140.337830,187.736969 
	C140.337830,186.625107 140.337830,185.402847 140.559814,183.811172 
z"/>
<path fill="#1B37B7" opacity="1.000000" stroke="none" 
	d="
M196.299133,181.468048 
	C196.191498,181.531067 196.072159,181.259903 196.079193,181.187073 
	C196.086227,181.114258 196.406769,181.405045 196.299133,181.468048 
z"/>
</svg>