<svg version="1.1" id="Layer_1" xmlns="http://www.w3.org/2000/svg" xmlns:xlink="http://www.w3.org/1999/xlink" x="0px" y="0px"
	 width="100%" viewBox="0 0 900 900" enable-background="new 0 0 900 900" xml:space="preserve">
<path fill="#019DF4" opacity="1.000000" stroke="none" 
	d="
M494.000000,901.000000 
	C329.333344,901.000000 165.166672,901.000000 1.000000,901.000000 
	C1.000000,601.000000 1.000000,301.000000 1.000000,1.000000 
	C301.000000,1.000000 601.000000,1.000000 901.000000,1.000000 
	C901.000000,301.000000 901.000000,601.000000 901.000000,901.000000 
	C765.500000,901.000000 630.000000,901.000000 494.000000,901.000000 
M682.522461,453.530273 
	C681.990662,421.781372 679.326172,390.273071 670.572693,359.603882 
	C664.893433,339.705383 658.265564,320.142365 645.134949,303.564362 
	C628.825623,282.973053 606.192200,275.324921 581.030640,282.743866 
	C558.820862,289.292511 542.180359,303.594818 531.558350,323.728577 
	C522.263489,341.346619 514.965759,360.027710 506.978546,378.323303 
	C500.323761,393.566742 494.788452,409.360779 487.247070,424.140289 
	C476.698608,444.812897 454.302399,451.426697 433.536987,441.058136 
	C423.631805,436.112305 415.984314,428.314514 409.864105,419.270233 
	C401.561401,407.000702 393.949036,394.266357 385.793854,381.894043 
	C374.882202,365.339874 363.802490,348.940979 348.782257,335.595520 
	C331.116150,319.899261 310.840240,316.132416 288.670532,322.330627 
	C266.091736,328.643188 251.702042,344.812286 241.507950,364.918365 
	C226.061432,395.383911 220.095551,428.282410 219.333588,462.043915 
	C218.341293,506.011047 229.004471,547.911926 244.615723,588.636047 
	C247.798889,596.939636 252.182755,604.980774 257.201172,612.331848 
	C263.123108,621.006409 272.470490,623.380432 282.487335,621.477539 
	C291.418640,619.780823 296.875610,613.599609 298.441925,604.904541 
	C299.394958,599.614075 299.252106,593.862610 298.296509,588.553162 
	C296.826263,580.384338 294.351135,572.384644 292.094574,564.371643 
	C287.357605,547.550659 282.272247,530.824951 277.742828,513.949341 
	C274.652740,502.436371 273.495605,490.635895 275.891632,478.801758 
	C278.814209,464.367279 293.676483,459.093079 304.329712,469.147522 
	C309.687195,474.203827 314.160187,480.496368 317.932709,486.880188 
	C332.754425,511.961395 347.090607,537.329041 361.702637,562.534912 
	C371.159363,578.847778 383.448761,592.347717 400.568512,600.963013 
	C422.037994,611.767334 444.339447,611.075684 466.901337,605.652527 
	C485.454681,601.192932 500.243561,591.133301 511.213715,575.356384 
	C519.821228,562.977417 524.619873,549.031433 529.036560,534.849792 
	C538.293701,505.126068 547.005005,475.185944 560.755249,447.103241 
	C567.319885,433.696106 575.220459,421.153961 588.015503,412.630554 
	C601.730469,403.494354 617.373291,408.414856 622.990479,423.790741 
	C624.626404,428.268707 626.203003,433.157715 626.092163,437.817535 
	C625.593811,458.766296 624.648743,479.709564 623.520081,500.636261 
	C622.867310,512.740417 620.075439,524.803528 623.015076,536.929749 
	C627.578796,555.755676 646.245117,562.242859 661.400696,550.207825 
	C668.885315,544.264282 673.002380,536.150696 675.035706,526.958557 
	C680.313782,503.097900 682.119751,478.869904 682.522461,453.530273 
z"/>
<path fill="#FDFFFF" opacity="1.000000" stroke="none" 
	d="
M682.522827,454.015656 
	C682.119751,478.869904 680.313782,503.097900 675.035706,526.958557 
	C673.002380,536.150696 668.885315,544.264282 661.400696,550.207825 
	C646.245117,562.242859 627.578796,555.755676 623.015076,536.929749 
	C620.075439,524.803528 622.867310,512.740417 623.520081,500.636261 
	C624.648743,479.709564 625.593811,458.766296 626.092163,437.817535 
	C626.203003,433.157715 624.626404,428.268707 622.990479,423.790741 
	C617.373291,408.414856 601.730469,403.494354 588.015503,412.630554 
	C575.220459,421.153961 567.319885,433.696106 560.755249,447.103241 
	C547.005005,475.185944 538.293701,505.126068 529.036560,534.849792 
	C524.619873,549.031433 519.821228,562.977417 511.213715,575.356384 
	C500.243561,591.133301 485.454681,601.192932 466.901337,605.652527 
	C444.339447,611.075684 422.037994,611.767334 400.568512,600.963013 
	C383.448761,592.347717 371.159363,578.847778 361.702637,562.534912 
	C347.090607,537.329041 332.754425,511.961395 317.932709,486.880188 
	C314.160187,480.496368 309.687195,474.203827 304.329712,469.147522 
	C293.676483,459.093079 278.814209,464.367279 275.891632,478.801758 
	C273.495605,490.635895 274.652740,502.436371 277.742828,513.949341 
	C282.272247,530.824951 287.357605,547.550659 292.094574,564.371643 
	C294.351135,572.384644 296.826263,580.384338 298.296509,588.553162 
	C299.252106,593.862610 299.394958,599.614075 298.441925,604.904541 
	C296.875610,613.599609 291.418640,619.780823 282.487335,621.477539 
	C272.470490,623.380432 263.123108,621.006409 257.201172,612.331848 
	C252.182755,604.980774 247.798889,596.939636 244.615723,588.636047 
	C229.004471,547.911926 218.341293,506.011047 219.333588,462.043915 
	C220.095551,428.282410 226.061432,395.383911 241.507950,364.918365 
	C251.702042,344.812286 266.091736,328.643188 288.670532,322.330627 
	C310.840240,316.132416 331.116150,319.899261 348.782257,335.595520 
	C363.802490,348.940979 374.882202,365.339874 385.793854,381.894043 
	C393.949036,394.266357 401.561401,407.000702 409.864105,419.270233 
	C415.984314,428.314514 423.631805,436.112305 433.536987,441.058136 
	C454.302399,451.426697 476.698608,444.812897 487.247070,424.140289 
	C494.788452,409.360779 500.323761,393.566742 506.978546,378.323303 
	C514.965759,360.027710 522.263489,341.346619 531.558350,323.728577 
	C542.180359,303.594818 558.820862,289.292511 581.030640,282.743866 
	C606.192200,275.324921 628.825623,282.973053 645.134949,303.564362 
	C658.265564,320.142365 664.893433,339.705383 670.572693,359.603882 
	C679.326172,390.273071 681.990662,421.781372 682.522827,454.015656 
z"/>
</svg>